<svg xmlns="http://www.w3.org/2000/svg" xmlns:xlink="http://www.w3.org/1999/xlink" viewBox="0 0 420 340.94"><defs><style>.cls-1{fill:url(#linear-gradient);}.cls-2{fill:url(#linear-gradient-2);}.cls-3{fill:url(#linear-gradient-3);}.cls-4{fill:url(#linear-gradient-4);}.cls-5{fill:url(#linear-gradient-5);}.cls-6{fill:url(#linear-gradient-6);}.cls-7{fill:url(#linear-gradient-7);}.cls-8{fill:url(#linear-gradient-8);}.cls-9{fill:url(#linear-gradient-9);}.cls-10{fill:url(#linear-gradient-10);}.cls-11{fill:url(#linear-gradient-11);}.cls-12{fill:url(#linear-gradient-12);}.cls-13{fill:url(#linear-gradient-13);}.cls-14{fill:url(#linear-gradient-14);}.cls-15{fill:url(#linear-gradient-15);}.cls-16{fill:url(#linear-gradient-16);}.cls-17{fill:url(#linear-gradient-17);}.cls-18{fill:url(#linear-gradient-18);}.cls-19{fill:url(#linear-gradient-19);}.cls-20{fill:url(#linear-gradient-20);}.cls-21{fill:url(#linear-gradient-21);}.cls-22{fill:url(#linear-gradient-22);}.cls-23{fill:url(#linear-gradient-23);}.cls-24{fill:url(#linear-gradient-24);}.cls-25{fill:url(#linear-gradient-25);}.cls-26{fill:url(#linear-gradient-26);}.cls-27{fill:url(#linear-gradient-27);}.cls-28{fill:url(#linear-gradient-28);}.cls-29{fill:url(#linear-gradient-29);}.cls-30{fill:url(#linear-gradient-30);}.cls-31{fill:url(#linear-gradient-31);}.cls-32{fill:url(#linear-gradient-32);}.cls-33{fill:url(#linear-gradient-33);}.cls-34{fill:url(#linear-gradient-34);}.cls-35{fill:url(#linear-gradient-35);}.cls-36{fill:url(#linear-gradient-36);}.cls-37{fill:url(#linear-gradient-37);}.cls-38{fill:url(#linear-gradient-38);}.cls-39{fill:url(#linear-gradient-39);}.cls-40{fill:url(#linear-gradient-40);}.cls-41{fill:url(#linear-gradient-41);}</style><linearGradient id="linear-gradient" x1="154.31" y1="68.51" x2="200.73" y2="68.51" gradientUnits="userSpaceOnUse"><stop offset="0" stop-color="#d8b25a"/><stop offset="0.18" stop-color="#fff8e7"/><stop offset="0.44" stop-color="#c9961a"/><stop offset="0.72" stop-color="#a87400"/><stop offset="1" stop-color="#e0b84f"/></linearGradient><linearGradient id="linear-gradient-2" x1="140.33" y1="45.56" x2="214.17" y2="45.56" xlink:href="#linear-gradient"/><linearGradient id="linear-gradient-3" x1="139.49" y1="123.04" x2="216.67" y2="123.04" xlink:href="#linear-gradient"/><linearGradient id="linear-gradient-4" x1="139.49" y1="124.83" x2="168.67" y2="124.83" gradientUnits="userSpaceOnUse"><stop offset="0" stop-color="#e7d39a"/><stop offset="0.22" stop-color="#d8b25a"/><stop offset="0.5" stop-color="#c9961a"/><stop offset="0.78" stop-color="#f4e7ae"/><stop offset="1" stop-color="#a87400"/></linearGradient><linearGradient id="linear-gradient-5" x1="187.84" y1="117.77" x2="216.67" y2="117.77" xlink:href="#linear-gradient-4"/><linearGradient id="linear-gradient-6" x1="200.36" y1="112.37" x2="312.38" y2="112.37" xlink:href="#linear-gradient-4"/><linearGradient id="linear-gradient-7" x1="205.33" y1="111.66" x2="312.38" y2="111.66" xlink:href="#linear-gradient"/><linearGradient id="linear-gradient-8" x1="221.18" y1="108.8" x2="311.56" y2="108.8" gradientUnits="userSpaceOnUse"><stop offset="0" stop-color="#915830"/><stop offset="0.26" stop-color="#7b4a27"/><stop offset="0.49" stop-color="#6a3f20"/><stop offset="0.73" stop-color="#87522c"/><stop offset="1" stop-color="#ac6b3c"/></linearGradient><linearGradient id="linear-gradient-9" x1="100.92" y1="160.81" x2="321.64" y2="160.81" xlink:href="#linear-gradient-8"/><linearGradient id="linear-gradient-10" x1="100.32" y1="157.85" x2="326.75" y2="157.85" xlink:href="#linear-gradient-4"/><linearGradient id="linear-gradient-11" x1="143.84" y1="202.27" x2="211.51" y2="202.27" xlink:href="#linear-gradient"/><linearGradient id="linear-gradient-12" x1="187.06" y1="200.2" x2="211.51" y2="200.2" xlink:href="#linear-gradient-4"/><linearGradient id="linear-gradient-13" x1="143.84" y1="220.42" x2="211.51" y2="220.42" xlink:href="#linear-gradient-8"/><linearGradient id="linear-gradient-14" x1="203.98" y1="187.63" x2="320.48" y2="187.63" xlink:href="#linear-gradient-4"/><linearGradient id="linear-gradient-15" x1="206.97" y1="187.87" x2="316.97" y2="187.87" xlink:href="#linear-gradient"/><linearGradient id="linear-gradient-16" x1="128.13" y1="245.77" x2="241.55" y2="2.53" xlink:href="#linear-gradient"/><linearGradient id="linear-gradient-17" x1="77.28" y1="90.15" x2="279.67" y2="90.15" xlink:href="#linear-gradient-8"/><linearGradient id="linear-gradient-18" x1="143.84" y1="205.97" x2="169.49" y2="205.97" xlink:href="#linear-gradient-4"/><linearGradient id="linear-gradient-19" x1="0" y1="288.92" x2="14.71" y2="288.92" xlink:href="#linear-gradient"/><linearGradient id="linear-gradient-20" x1="25.01" y1="288.89" x2="70.81" y2="288.89" xlink:href="#linear-gradient"/><linearGradient id="linear-gradient-21" x1="79.63" y1="288.89" x2="125.43" y2="288.89" xlink:href="#linear-gradient"/><linearGradient id="linear-gradient-22" x1="135.2" y1="288.92" x2="179.39" y2="288.92" xlink:href="#linear-gradient"/><linearGradient id="linear-gradient-23" x1="183.97" y1="289.39" x2="229.71" y2="289.39" xlink:href="#linear-gradient"/><linearGradient id="linear-gradient-24" x1="226.14" y1="288.44" x2="270.57" y2="288.44" xlink:href="#linear-gradient"/><linearGradient id="linear-gradient-25" x1="270.93" y1="288.35" x2="306.6" y2="288.35" xlink:href="#linear-gradient"/><linearGradient id="linear-gradient-26" x1="315.6" y1="288.92" x2="330.31" y2="288.92" xlink:href="#linear-gradient"/><linearGradient id="linear-gradient-27" x1="337.27" y1="289.39" x2="383.01" y2="289.39" xlink:href="#linear-gradient"/><linearGradient id="linear-gradient-28" x1="390.04" y1="288.38" x2="420" y2="288.38" xlink:href="#linear-gradient"/><linearGradient id="linear-gradient-29" x1="70.66" y1="331.91" x2="86.92" y2="331.91" xlink:href="#linear-gradient"/><linearGradient id="linear-gradient-30" x1="101.14" y1="331.91" x2="119.44" y2="331.91" xlink:href="#linear-gradient"/><linearGradient id="linear-gradient-31" x1="132.79" y1="331.91" x2="145.2" y2="331.91" xlink:href="#linear-gradient"/><linearGradient id="linear-gradient-32" x1="158.16" y1="331.91" x2="170.57" y2="331.91" xlink:href="#linear-gradient"/><linearGradient id="linear-gradient-33" x1="183.52" y1="331.69" x2="195.93" y2="331.69" xlink:href="#linear-gradient"/><linearGradient id="linear-gradient-34" x1="209.18" y1="331.91" x2="225.44" y2="331.91" xlink:href="#linear-gradient"/><linearGradient id="linear-gradient-35" x1="238.55" y1="331.68" x2="253.33" y2="331.68" xlink:href="#linear-gradient"/><linearGradient id="linear-gradient-36" x1="266.43" y1="331.91" x2="272.52" y2="331.91" xlink:href="#linear-gradient"/><linearGradient id="linear-gradient-37" x1="284.78" y1="332.11" x2="303.73" y2="332.11" xlink:href="#linear-gradient"/><linearGradient id="linear-gradient-38" x1="316.02" y1="331.69" x2="328.43" y2="331.69" xlink:href="#linear-gradient"/><linearGradient id="linear-gradient-39" x1="342.09" y1="331.91" x2="351.97" y2="331.91" xlink:href="#linear-gradient"/><linearGradient id="linear-gradient-40" x1="364.8" y1="330.09" x2="420" y2="330.09" xlink:href="#linear-gradient"/><linearGradient id="linear-gradient-41" x1="0" y1="330.09" x2="55.2" y2="330.09" xlink:href="#linear-gradient"/></defs><g id="Layer_2" data-name="Layer 2"><g id="Layer_1-2" data-name="Layer 1"><path class="cls-1" d="M200.73,72.13a198.48,198.48,0,0,0-46.42-.87l.09-4.87a181.39,181.39,0,0,1,46.25,0Z"/><path class="cls-2" d="M205.36,44.88c-2.48.84-4.86,1.53-7.11,2.12a7.39,7.39,0,0,1,.16,5.54c-1.62,3.69-7,5-10.91,3.4-2.51-1-5.5-3.76-5.28-7.47s3.39-5.7,3.75-5.93a40.84,40.84,0,0,1-4.24-6,40.48,40.48,0,0,1-4.09-9.89,47.15,47.15,0,0,1-9,15.8,7.36,7.36,0,0,1,3.9,6.48c-.15,4.27-4.65,6.2-5.28,6.47-2.66,1.15-7.34,1.64-9.71-1.48-2.18-2.86-.82-6.71-.69-7.08a67,67,0,0,1-7.68-2.2,67.44,67.44,0,0,1-8.87-3.87A56.41,56.41,0,0,1,153.82,64a173.81,173.81,0,0,1,24-1.38,171.83,171.83,0,0,1,23.41,1.87,63.16,63.16,0,0,1,13-23C211.5,42.65,208.56,43.81,205.36,44.88ZM177.52,61.39,173,55.78l4.57-7.31,4,7Z"/><path class="cls-3" d="M216.67,74.77v1.92a58.17,58.17,0,0,0-9.38-.25c-4.64.25-7.53.41-10.65,2a15.75,15.75,0,0,0-8.8,14.36V159.2l-19.17,12.12v-78a16.6,16.6,0,0,0-7.15-13.8c-.35-.23-.72-.46-1.1-.68-3.65-2.07-7.26-2.25-12.78-2.53a58,58,0,0,0-8.15.15V74.77Z"/><path class="cls-4" d="M168.67,93.27v78.05l-3.42,2.17q0-40.11-.05-80.21a13.4,13.4,0,0,0-4.77-10.37l-.5-.39c-2.75-2.08-5.42-2.68-8.36-3.31a34.49,34.49,0,0,0-12.08-.4v-2.4a58,58,0,0,1,8.15-.15c5.52.28,9.13.46,12.78,2.53.38.22.75.45,1.1.68A16.6,16.6,0,0,1,168.67,93.27Z"/><path class="cls-5" d="M216.67,76.69v1.55c-2.2.09-5.37.29-9.17.8-8.36,1.14-10.36,2.51-11,3a14.23,14.23,0,0,0-2.74,2.44,10.42,10.42,0,0,0-2.31,5.35v67.11l-3.59,2.27V92.75a15.75,15.75,0,0,1,8.8-14.36c3.12-1.54,6-1.7,10.65-2A58.17,58.17,0,0,1,216.67,76.69Z"/><path class="cls-6" d="M312.38,83.74V88a80.09,80.09,0,0,0-19.88-9c-7-2.08-28.86-8.55-50.94,1.84-28,13.19-35,43.43-35.85,47.36q-.19,10.06-.38,20.14l-4.72,2.7c-.47-5.7-2.25-34.4,18.5-56.33A68.22,68.22,0,0,1,245,77.81c29.64-10.74,56.84,2.92,62.51,5.93Z"/><path class="cls-7" d="M312.38,88v20.37c-.28.26-.55.53-.82.8a34.6,34.6,0,0,0-4.62-12.92c-9.14-15-28.07-19.07-41.6-17.37-24.31,3-35.87,25.39-37.8,29.11a58.85,58.85,0,0,0-6.2,31.2l-16,9.14q.19-10.07.38-20.14c.84-3.93,7.83-34.17,35.85-47.36,22.08-10.39,43.94-3.92,50.94-1.84A80.09,80.09,0,0,1,312.38,88Z"/><path class="cls-8" d="M311.56,109.12c-.88.87-1.76,1.74-2.63,2.62a36.19,36.19,0,0,0-7.85-17.67c-10.14-12.1-25-12.72-28.35-12.85A43.2,43.2,0,0,0,245,90.16c-12,9.28-15.36,22.46-17.38,30.41a69.05,69.05,0,0,0-2.1,16.16l-4.21,2.41a58.85,58.85,0,0,1,6.2-31.2c1.93-3.72,13.49-26.06,37.8-29.11,13.53-1.7,32.46,2.39,41.6,17.37A34.6,34.6,0,0,1,311.56,109.12Z"/><path class="cls-9" d="M321.64,127a138.7,138.7,0,0,0-20.35-.12,128.82,128.82,0,0,0-64.84,21.87c-4,2.58-3.76,2.67-14.63,10.57-23.77,17.29-32.35,22.22-36.17,24.33-10.05,5.59-15.65,7.63-19,8.73-5.21,1.68-11,3.56-18.57,3.91,0,0-22.68,1-38.92-13.58a38.07,38.07,0,0,1-5.44-6.16,33,33,0,0,1-2.76-5,50.83,50.83,0,0,0,11.6,11.3c15.62,10.94,32.78,9.57,38.78,8.75a63,63,0,0,0,12.76-3.32c2-.69,8.1-2.89,23.19-12.11,10.58-6.46,18.58-12.11,20.58-13.52,6.93-4.91,8.37-6.32,15-10.75,4.85-3.25,9.16-6.15,15.21-9.45a140.63,140.63,0,0,1,22-9.78,143.84,143.84,0,0,1,16.73-4.4c5.54-1.11,10.2-1.72,13.47-2.06a108.67,108.67,0,0,1,20.2-.71A91.54,91.54,0,0,1,321.64,127Z"/><path class="cls-10" d="M326.75,127.49c-1.59-.19-3.29-.36-5.11-.5a91.54,91.54,0,0,0-11.17-1.46,108.67,108.67,0,0,0-20.2.71c-3.27.34-7.93,1-13.47,2.06a143.84,143.84,0,0,0-16.73,4.4,140.63,140.63,0,0,0-22,9.78c-6.05,3.3-10.36,6.2-15.21,9.45-6.62,4.43-8.06,5.84-15,10.75-2,1.41-10,7.06-20.58,13.52-15.09,9.22-21.19,11.42-23.19,12.11a63,63,0,0,1-12.76,3.32c-6,.82-23.16,2.19-38.78-8.75a50.83,50.83,0,0,1-11.6-11.3q-.35-.79-.6-1.44a46.55,46.55,0,0,0,16,11.91A47.5,47.5,0,0,0,137.61,186c12.3-.34,21.54-5,27.82-8.19,1.59-.8,3.79-2.11,8.21-4.74,10.49-6.25,16-10,27.73-17.56,8.1-5.19,12.14-7.78,14.26-9a166.59,166.59,0,0,1,38.71-17,150.3,150.3,0,0,1,28.74-5.43c5.06-.44,9-.5,10.43-.51A134.62,134.62,0,0,1,326.75,127.49Z"/><path class="cls-11" d="M211.51,218.5v1H143.84v-1a62.15,62.15,0,0,0,7.85-.09c5.88-.43,9.19-.71,12.31-2.91a15.32,15.32,0,0,0,5.49-7.55V193.28a65.28,65.28,0,0,0,9.23-3.56,66.11,66.11,0,0,0,8.34-4.72q.23,10.53.46,21.07a14.54,14.54,0,0,0,4.18,8.37c3.05,2.85,6.69,3.37,10.86,4A34.68,34.68,0,0,0,211.51,218.5Z"/><path class="cls-12" d="M211.51,217.28v1.22a34.68,34.68,0,0,1-8.95-.1c-4.17-.59-7.81-1.11-10.86-4a14.54,14.54,0,0,1-4.18-8.37q-.24-10.53-.46-21.07c1.72-1.16,3.25-2.29,4.57-3.35v24.51a8.84,8.84,0,0,0,.66,3.68C194.51,215.09,202.19,217.9,211.51,217.28Z"/><rect class="cls-13" x="143.84" y="219.54" width="67.67" height="1.76"/><path class="cls-14" d="M320.48,173.72q-3.39,13.36-6.8,26.72c-5.08,4.11-22.44,17.12-47.22,16.58a70.57,70.57,0,0,1-34.19-9.7A68.46,68.46,0,0,1,212.5,189.7,65.56,65.56,0,0,1,204,174.3l3-2.15a68.15,68.15,0,0,0,6.65,12.9,77.64,77.64,0,0,0,9.25,11.25c8.12,7.9,26,18.64,48.5,18a70.84,70.84,0,0,0,40.13-14.18c4.72-15.17,5.67-19,5.44-19.11s-1.5,4.11-5.11,9.23a45.1,45.1,0,0,1-4.13,5,53.71,53.71,0,0,1-12.6,9.4c-6.71,3.48-25.15,9.55-43.44.81-18.89-9-25-27.78-27.7-36.06a65.18,65.18,0,0,1-2.07-8l4.38-3.15c.27,5.77,1.76,20,12.24,32.66a45.38,45.38,0,0,0,19.7,14.62c2,.73,17.21,6.05,32.91-1.27a43.21,43.21,0,0,0,10-6.63,64.77,64.77,0,0,0,18.75-26.78C320.1,171.79,320.29,172.75,320.48,173.72Z"/><path class="cls-15" d="M311.5,200.15a70.84,70.84,0,0,1-40.13,14.18c-22.53.61-40.38-10.13-48.5-18a77.64,77.64,0,0,1-9.25-11.25,68.15,68.15,0,0,1-6.65-12.9q7.46-5.4,14.92-10.77a65.18,65.18,0,0,0,2.07,8c2.7,8.28,8.81,27.05,27.7,36.06,18.29,8.74,36.73,2.67,43.44-.81a53.71,53.71,0,0,0,12.6-9.4,45.1,45.1,0,0,0,4.13-5c3.61-5.12,4.85-9.32,5.11-9.23S316.22,185,311.5,200.15Z"/><path class="cls-16" d="M328.72,76.93l-.76.38c-6.35-12.46-21-37.36-46.44-52.39l-1.85-1.07a120,120,0,0,0-12.36-7.5,123.16,123.16,0,0,0-39.44-12.8C182.13-3.1,146.6,18.32,140.33,22.24c-40,25-67.9,74.06-62.35,126.64A126.57,126.57,0,0,0,84.61,178c12.52,42.47,44.32,65.82,56.09,73.62A104.32,104.32,0,0,1,114.4,233a125.16,125.16,0,0,1-11.93-13.84,147,147,0,0,1-15.42-24,138.93,138.93,0,0,1-11.6-33.25A140.43,140.43,0,0,1,78,95.44c3.29-11.15,15.67-47.63,52.35-72.55A138.79,138.79,0,0,1,187.87,1.3a132.61,132.61,0,0,1,82.65,15c9,4.89,37.08,21.36,54.92,54.16C326.92,73.17,328,75.45,328.72,76.93Z"/><path class="cls-17" d="M279.67,23.85a159,159,0,0,0-22.91-10.3S239.71,7.5,223,5.73C206.92,4,169.26,4.5,134.68,29.19c-48.41,34.56-54,90.31-54.82,105a131.72,131.72,0,0,0,4.64,43.44c0,.13.07.26.11.39A126.57,126.57,0,0,1,78,148.88C72.43,96.3,100.32,47.23,140.33,22.24c6.27-3.92,41.8-25.34,87.54-18.69a123.16,123.16,0,0,1,39.44,12.8A120,120,0,0,1,279.67,23.85Z"/><g id="Extra_Lines" data-name="Extra Lines"><path class="cls-18" d="M169.49,193.28V208a15.32,15.32,0,0,1-5.49,7.55c-3.12,2.2-6.43,2.48-12.31,2.91a62.15,62.15,0,0,1-7.85.09v-1.52h7.28c1,0,9.28-.14,12.8-6.06a10.43,10.43,0,0,0,1.31-3.54q0-6.51-.1-13C166.47,194.12,167.93,193.75,169.49,193.28Z"/></g><path class="cls-19" d="M4.76,272.42H4.59a3.82,3.82,0,0,0-1.17-2.65,3.61,3.61,0,0,0-2.65-1.1H0v-.6H4.76Zm0,33v4.34H0v-.59H.77a3.61,3.61,0,0,0,2.65-1.1,3.83,3.83,0,0,0,1.17-2.65Zm5.36-37.35v41.69H4.59V268.07ZM10,272.42v-4.35h4.76v.6h-.77a3.61,3.61,0,0,0-2.65,1.1,3.82,3.82,0,0,0-1.17,2.65Zm0,33h.17a3.83,3.83,0,0,0,1.17,2.65,3.61,3.61,0,0,0,2.65,1.1h.77v.59H10Z"/><path class="cls-20" d="M30,305.53v4.23H25v-.59h1.14a3.65,3.65,0,0,0,3.63-3.64Zm-.18-38.35,4.58,5.24.06,37.34H29.78V274.62a54.73,54.73,0,0,0-.6-7.44Zm0,0,35.73,36.69.6,6.73L30.37,274Zm4.64,38.35a3.67,3.67,0,0,0,3.64,3.64h1.13v.59H34.24v-4.23Zm22.22-37.46h4.94v4.23h-.12a3.72,3.72,0,0,0-1.1-2.59,3.53,3.53,0,0,0-2.59-1H56.64Zm9.41,0V303c0,1.35,0,2.61.15,3.79s.25,2.45.44,3.84h-.53l-4.65-5.3V268.07Zm4.76,0v.6H69.74a3.57,3.57,0,0,0-2.56,1,3.71,3.71,0,0,0-1.13,2.59h-.18v-4.23Z"/><path class="cls-21" d="M84.57,305.53v4.23H79.63v-.59h1.13a3.65,3.65,0,0,0,3.63-3.64Zm-.18-38.35L89,272.42,89,309.76H84.39V274.62a56.19,56.19,0,0,0-.59-7.44Zm0,0,35.74,36.69.59,6.73L85,274ZM89,305.53a3.65,3.65,0,0,0,3.63,3.64H93.8v.59H88.86v-4.23Zm22.21-37.46h5v4.23h-.12a3.76,3.76,0,0,0-1.1-2.59,3.54,3.54,0,0,0-2.59-1h-1.14Zm9.41,0V303c0,1.35,0,2.61.15,3.79s.25,2.45.45,3.84h-.54l-4.64-5.3V268.07Zm4.77,0v.6h-1.07a3.54,3.54,0,0,0-2.56,1,3.68,3.68,0,0,0-1.14,2.59h-.17v-4.23Z"/><path class="cls-22" d="M157.23,267.24a24.17,24.17,0,0,1,11.65,2.68,19.29,19.29,0,0,1,7.74,7.56,25,25,0,0,1,0,22.87,19.25,19.25,0,0,1-7.74,7.57,24.29,24.29,0,0,1-11.65,2.68,24,24,0,0,1-11.52-2.68,19.12,19.12,0,0,1-7.74-7.57,25,25,0,0,1,0-22.87,19.16,19.16,0,0,1,7.74-7.56A23.84,23.84,0,0,1,157.23,267.24Zm0,41.33a14.22,14.22,0,0,0,8.34-2.44,16.1,16.1,0,0,0,5.48-6.85,28.25,28.25,0,0,0,0-20.73,16.07,16.07,0,0,0-5.48-6.84,15.27,15.27,0,0,0-16.59,0,16,16,0,0,0-5.51,6.84,28.39,28.39,0,0,0,0,20.73,16,16,0,0,0,5.51,6.85A14.2,14.2,0,0,0,157.23,308.57Z"/><path class="cls-23" d="M196.48,272.36l-6.79.06a6,6,0,0,0-2.38-2.89,5.76,5.76,0,0,0-2.86-.86H184v-.6h15.25v.6h-.54a2.63,2.63,0,0,0-2,.95A2.54,2.54,0,0,0,196.48,272.36Zm10.3,38.36L187.9,268.43h7l13.94,34.66Zm0,0-.41-5.19L222,268.25h3.81l-16,35.8a4.71,4.71,0,0,1-.39.92c-.25.53-.54,1.18-.86,1.93a22.9,22.9,0,0,0-.8,2.21,9.61,9.61,0,0,0-.39,1.61Zm13.52-38.36a2.52,2.52,0,0,0-.23-2.74,2.75,2.75,0,0,0-2-.95h-.54v-.6h12.21v.6h-.53a5.65,5.65,0,0,0-2.8.86,6.29,6.29,0,0,0-2.44,2.89Z"/><path class="cls-24" d="M235.55,305.42a3,3,0,0,0-.12,2,2.49,2.49,0,0,0,1,1.28,2.55,2.55,0,0,0,1.4.45h.54v.59H226.14v-.59h.54a5.55,5.55,0,0,0,2.83-.87,6.34,6.34,0,0,0,2.41-2.88Zm12.81-38.3.47,5.18-14.89,37.28h-3.87l15.31-35.79.44-.92c.26-.54.54-1.18.84-1.94s.56-1.49.8-2.2a5.66,5.66,0,0,0,.36-1.61Zm7.68,27.1v2H237.81v-2Zm-7.68-27.1,18.28,42.29h-7l-13.28-34.67Zm9.76,38.3h6.73a6.3,6.3,0,0,0,2.42,2.88,5.49,5.49,0,0,0,2.82.87h.48v.59H255.32v-.59h.54a2.72,2.72,0,0,0,2.08-1A2.47,2.47,0,0,0,258.12,305.42Z"/><path class="cls-25" d="M270.93,266.94a10.59,10.59,0,0,0,1.81.48c.82.16,1.72.3,2.71.41a23.11,23.11,0,0,0,2.74.18l-7.26.66ZM306.6,268v2H270.93v-2Zm-30.73,1.85V270a4.44,4.44,0,0,0-3.13,1.28,4.23,4.23,0,0,0-1.22,3.13v.89l-.59.06v-5.54Zm10.31,35.56v4.34h-4.77v-.59h.77a3.61,3.61,0,0,0,2.65-1.1,3.83,3.83,0,0,0,1.17-2.65Zm5.36-37.17v41.51H286V268.25Zm-.18,37.17h.18a3.78,3.78,0,0,0,1.16,2.65,3.61,3.61,0,0,0,2.65,1.1h.77v.59h-4.76Zm15.24-38.48v1.73l-7.26-.66a22.81,22.81,0,0,0,2.77-.18c1-.11,1.87-.25,2.71-.41A8.77,8.77,0,0,0,306.6,266.94Zm0,2.92v5.54l-.59-.06v-.89a4.23,4.23,0,0,0-1.22-3.13,4.44,4.44,0,0,0-3.13-1.28v-.18Z"/><path class="cls-26" d="M320.36,272.42h-.18a3.85,3.85,0,0,0-1.16-2.65,3.62,3.62,0,0,0-2.65-1.1h-.77v-.6h4.76Zm0,33v4.34H315.6v-.59h.77a3.62,3.62,0,0,0,2.65-1.1,3.87,3.87,0,0,0,1.16-2.65Zm5.36-37.35v41.69h-5.54V268.07Zm-.18,4.35v-4.35h4.77v.6h-.78a3.64,3.64,0,0,0-2.65,1.1,3.85,3.85,0,0,0-1.16,2.65Zm0,33h.18a3.87,3.87,0,0,0,1.16,2.65,3.64,3.64,0,0,0,2.65,1.1h.78v.59h-4.77Z"/><path class="cls-27" d="M349.78,272.36l-6.79.06a6,6,0,0,0-2.38-2.89,5.76,5.76,0,0,0-2.86-.86h-.48v-.6h15.25v.6H352a2.64,2.64,0,0,0-2,.95A2.54,2.54,0,0,0,349.78,272.36Zm10.3,38.36-18.87-42.29h7l13.94,34.66Zm0,0-.41-5.19,15.6-37.28h3.81l-16,35.8a5.05,5.05,0,0,1-.38.92c-.26.53-.55,1.18-.87,1.93a22.9,22.9,0,0,0-.8,2.21,9.61,9.61,0,0,0-.39,1.61Zm13.52-38.36a2.52,2.52,0,0,0-.23-2.74,2.74,2.74,0,0,0-2-.95h-.53v-.6H383v.6h-.53a5.65,5.65,0,0,0-2.8.86,6.29,6.29,0,0,0-2.44,2.89Z"/><path class="cls-28" d="M394.81,272.42h-.18a3.58,3.58,0,0,0-1.13-2.65,3.74,3.74,0,0,0-2.68-1.1h-.72l-.06-.6h4.77Zm0,33v4.34H390v-.59h.78a3.64,3.64,0,0,0,2.65-1.1,3.87,3.87,0,0,0,1.16-2.65Zm5.36-37.35v41.69h-5.54V268.07Zm16.2,0v2.09H400v-2.09Zm-2.68,20.13v2H400v-2Zm2.44,19.48.48,2.08H400v-2.08Zm3.87-8.4-3.22,10.48H406.3l2.15-2.08a11.6,11.6,0,0,0,5.18-1,9.36,9.36,0,0,0,3.45-2.95,19.13,19.13,0,0,0,2.32-4.41ZM416.37,267v1.73l-7.27-.66a22.68,22.68,0,0,0,2.77-.18c1-.12,1.88-.25,2.71-.41A9.11,9.11,0,0,0,416.37,267Zm-2.68,16.8v4.52h-4.17v-.12a3.56,3.56,0,0,0,2.56-1.13,3.61,3.61,0,0,0,1-2.56v-.71Zm0,6.31v4.53h-.6v-.78a3.61,3.61,0,0,0-1-2.56,3.4,3.4,0,0,0-2.56-1.07v-.12ZM416.37,270v5.48h-.6v-1a4.25,4.25,0,0,0-1.22-3.09,4.36,4.36,0,0,0-3.13-1.31V270Z"/><path class="cls-29" d="M86.92,333.34l-.12,4a7.26,7.26,0,0,1-1.57,1.81A7,7,0,0,1,83,340.42a9.06,9.06,0,0,1-3.08.47,10.3,10.3,0,0,1-4.8-1.12,8,8,0,0,1-3.25-3.11,10.34,10.34,0,0,1,0-9.5A8,8,0,0,1,75,324,10.39,10.39,0,0,1,80,322.93a11.42,11.42,0,0,1,3.38.46,10.36,10.36,0,0,1,2.57,1.12l.34,3.72h-.22a5.54,5.54,0,0,0-2.21-3.36,6.56,6.56,0,0,0-9.78,2.71,10.12,10.12,0,0,0-.84,4.28,10.29,10.29,0,0,0,.83,4.27A6.65,6.65,0,0,0,76.38,339a6.29,6.29,0,0,0,3.49,1.07,7.76,7.76,0,0,0,3.23-.64,5.49,5.49,0,0,0,2.37-2.11,9.82,9.82,0,0,0,1.26-4Z"/><path class="cls-30" d="M110.27,322.93a10,10,0,0,1,4.82,1.11,8,8,0,0,1,3.21,3.13,10.42,10.42,0,0,1,0,9.48,8,8,0,0,1-3.21,3.13,10.93,10.93,0,0,1-9.6,0,8,8,0,0,1-3.21-3.13,10.42,10.42,0,0,1,0-9.48,8,8,0,0,1,3.21-3.13A9.92,9.92,0,0,1,110.27,322.93Zm0,17.12a5.85,5.85,0,0,0,3.45-1A6.61,6.61,0,0,0,116,336.2a11.77,11.77,0,0,0,0-8.58,6.61,6.61,0,0,0-2.27-2.84,6.35,6.35,0,0,0-6.87,0,6.55,6.55,0,0,0-2.28,2.84,11.63,11.63,0,0,0,0,8.58,6.55,6.55,0,0,0,2.28,2.84A5.84,5.84,0,0,0,110.27,340.05Z"/><path class="cls-31" d="M134.77,325.08h-.08a1.53,1.53,0,0,0-.48-1.1,1.47,1.47,0,0,0-1.1-.46h-.32v-.25h2Zm0,13.66v1.81h-2v-.25h.32a1.47,1.47,0,0,0,1.1-.46,1.53,1.53,0,0,0,.48-1.1ZM137,323.27v17.28h-2.3V323.27Zm-.08,1.81v-1.81h2v.25h-.32a1.47,1.47,0,0,0-1.1.46,1.53,1.53,0,0,0-.48,1.1Zm6.69,14.6.2.87h-6.89v-.87Zm1.6-3.48-1.33,4.35h-4.34l.89-.87a4.72,4.72,0,0,0,2.14-.43A3.86,3.86,0,0,0,144,338a8.76,8.76,0,0,0,1-1.83Z"/><path class="cls-32" d="M160.13,325.08h-.07a1.61,1.61,0,0,0-.48-1.1,1.49,1.49,0,0,0-1.1-.46h-.32v-.25h2Zm0,13.66v1.81h-2v-.25h.32a1.49,1.49,0,0,0,1.1-.46,1.61,1.61,0,0,0,.48-1.1Zm2.22-15.47v17.28h-2.29V323.27Zm-.07,1.81v-1.81h2v.25h-.32a1.49,1.49,0,0,0-1.1.46,1.61,1.61,0,0,0-.48,1.1Zm6.69,14.6.19.87h-6.88v-.87Zm1.6-3.48-1.33,4.35h-4.35l.89-.87a4.76,4.76,0,0,0,2.15-.43,3.91,3.91,0,0,0,1.43-1.22,7.91,7.91,0,0,0,1-1.83Z"/><path class="cls-33" d="M185.5,325.08h-.08A1.45,1.45,0,0,0,185,324a1.51,1.51,0,0,0-1.11-.46h-.29l0-.25h2Zm0,13.66v1.81h-2v-.25h.32a1.47,1.47,0,0,0,1.1-.46,1.53,1.53,0,0,0,.48-1.1Zm2.22-15.47v17.28h-2.3V323.27Zm6.71,0v.87h-6.79v-.87Zm-1.11,8.34v.84h-5.68v-.84Zm1,8.07.2.87h-6.89v-.87Zm1.6-3.48-1.33,4.35h-4.34l.89-.87a4.72,4.72,0,0,0,2.14-.43,3.75,3.75,0,0,0,1.43-1.22,8.33,8.33,0,0,0,1-1.83Zm-1.5-13.37v.72l-3-.28a9.44,9.44,0,0,0,1.15-.07c.4-.05.77-.11,1.12-.17A3.83,3.83,0,0,0,194.43,322.83Zm-1.11,7v1.87h-1.73v-.05a1.46,1.46,0,0,0,1.06-.46,1.5,1.5,0,0,0,.42-1.07v-.29Zm0,2.61v1.88h-.25V334a1.48,1.48,0,0,0-.42-1.06,1.38,1.38,0,0,0-1.06-.45v-.05Zm1.11-8.34v2.27h-.25v-.39a1.77,1.77,0,0,0-.5-1.28,1.83,1.83,0,0,0-1.3-.55v-.05Z"/><path class="cls-34" d="M225.44,333.34l-.12,4a7.26,7.26,0,0,1-1.57,1.81,7,7,0,0,1-2.28,1.27,9.1,9.1,0,0,1-3.08.47,10.3,10.3,0,0,1-4.8-1.12,8,8,0,0,1-3.25-3.11,10.34,10.34,0,0,1,0-9.5,8,8,0,0,1,3.23-3.12,10.39,10.39,0,0,1,4.95-1.11,11.42,11.42,0,0,1,3.38.46,10.36,10.36,0,0,1,2.57,1.12l.34,3.72h-.22a5.54,5.54,0,0,0-2.21-3.36,6.56,6.56,0,0,0-9.78,2.71,11.36,11.36,0,0,0,0,8.55A6.65,6.65,0,0,0,214.9,339a6.27,6.27,0,0,0,3.49,1.07,7.79,7.79,0,0,0,3.23-.64A5.49,5.49,0,0,0,224,337.3a9.82,9.82,0,0,0,1.26-4Z"/><path class="cls-35" d="M238.55,322.81a4.39,4.39,0,0,0,.75.19c.33.07.71.13,1.12.18a9.4,9.4,0,0,0,1.14.07l-3,.27Zm14.78.44v.84H238.55v-.84Zm-12.74.76v.08a1.83,1.83,0,0,0-1.29.53,1.75,1.75,0,0,0-.51,1.29v.37l-.24,0V324Zm4.27,14.73v1.81h-2v-.25h.32a1.49,1.49,0,0,0,1.1-.46,1.61,1.61,0,0,0,.48-1.1Zm2.22-15.39v17.2h-2.29v-17.2ZM247,338.74h.07a1.61,1.61,0,0,0,.48,1.1,1.49,1.49,0,0,0,1.1.46H249v.25h-2Zm6.32-15.93v.71l-3-.27a9.21,9.21,0,0,0,1.15-.07c.4-.05.78-.11,1.12-.18A3.93,3.93,0,0,0,253.33,322.81Zm0,1.2v2.3l-.25,0v-.37a1.75,1.75,0,0,0-.51-1.29,1.83,1.83,0,0,0-1.29-.53V324Z"/><path class="cls-36" d="M268.4,325.08h-.07a1.61,1.61,0,0,0-.48-1.1,1.5,1.5,0,0,0-1.1-.46h-.32v-.25h2Zm0,13.66v1.81h-2v-.25h.32a1.5,1.5,0,0,0,1.1-.46,1.61,1.61,0,0,0,.48-1.1Zm2.22-15.47v17.28h-2.29V323.27Zm-.07,1.81v-1.81h2v.25h-.32a1.49,1.49,0,0,0-1.1.46,1.61,1.61,0,0,0-.48,1.1Zm0,13.66h.07a1.61,1.61,0,0,0,.48,1.1,1.49,1.49,0,0,0,1.1.46h.32v.25h-2Z"/><path class="cls-37" d="M290,325.05l-2.82,0a2.45,2.45,0,0,0-1-1.2,2.39,2.39,0,0,0-1.19-.36h-.2v-.25h6.32v.25h-.22a1.08,1.08,0,0,0-.83.4A1,1,0,0,0,290,325.05Zm4.26,15.89-7.82-17.52h2.89l5.77,14.36Zm0,0-.17-2.15,6.47-15.44h1.57l-6.63,14.83a2.61,2.61,0,0,1-.16.38c-.11.22-.23.49-.36.8a9.29,9.29,0,0,0-.33.92,3.34,3.34,0,0,0-.16.66Zm5.6-15.89a1,1,0,0,0-.09-1.13,1.12,1.12,0,0,0-.84-.4h-.22v-.25h5.05v.25h-.22a2.32,2.32,0,0,0-1.16.36,2.6,2.6,0,0,0-1,1.2Z"/><path class="cls-38" d="M318,325.08h-.07a1.48,1.48,0,0,0-.47-1.1,1.51,1.51,0,0,0-1.11-.46h-.29l0-.25h2Zm0,13.66v1.81h-2v-.25h.32a1.49,1.49,0,0,0,1.1-.46,1.61,1.61,0,0,0,.48-1.1Zm2.23-15.47v17.28h-2.3V323.27Zm6.71,0v.87h-6.79v-.87Zm-1.11,8.34v.84h-5.68v-.84Zm1,8.07.2.87h-6.89v-.87Zm1.6-3.48-1.33,4.35h-4.34l.89-.87a4.72,4.72,0,0,0,2.14-.43,3.83,3.83,0,0,0,1.43-1.22,8.33,8.33,0,0,0,1-1.83Zm-1.5-13.37v.72l-3-.28a9.16,9.16,0,0,0,1.14-.07c.41-.05.78-.11,1.13-.17A3.83,3.83,0,0,0,326.93,322.83Zm-1.11,7v1.87h-1.73v-.05a1.46,1.46,0,0,0,1.06-.46,1.5,1.5,0,0,0,.42-1.07v-.29Zm0,2.61v1.88h-.25V334a1.48,1.48,0,0,0-.42-1.06,1.38,1.38,0,0,0-1.06-.45v-.05Zm1.11-8.34v2.27h-.25v-.39a1.74,1.74,0,0,0-.51-1.28,1.8,1.8,0,0,0-1.29-.55v-.05Z"/><path class="cls-39" d="M347.13,322.93c.28,0,.6,0,1,.05s.72.08,1.09.13l1,.18a2.6,2.6,0,0,1,.63.18l-.1,2.94h-.22a2.39,2.39,0,0,0-.86-1.93,3.34,3.34,0,0,0-2.18-.71,3.14,3.14,0,0,0-2.23.8,2.49,2.49,0,0,0-.85,1.89,2.28,2.28,0,0,0,.28,1.14,3.67,3.67,0,0,0,1,1.13l4.82,4a3.78,3.78,0,0,1,1.22,1.54,4.37,4.37,0,0,1,.33,1.81,4.66,4.66,0,0,1-1.46,3.48,5.3,5.3,0,0,1-3.8,1.31,9.8,9.8,0,0,1-1.64-.15,7.76,7.76,0,0,1-1.64-.45,3.59,3.59,0,0,1-1.23-.8,4,4,0,0,1-.11-1.1,8,8,0,0,1,.15-1.35,7.22,7.22,0,0,1,.35-1.23h.23a4,4,0,0,0,.35,2.24,3.41,3.41,0,0,0,1.41,1.52,3.77,3.77,0,0,0,2.13.48,3.62,3.62,0,0,0,2.41-.9,2.87,2.87,0,0,0,.95-2.23,2.76,2.76,0,0,0-.32-1.31,3.08,3.08,0,0,0-1-1.06l-4.59-3.9a3.89,3.89,0,0,1-1.33-1.63,4.13,4.13,0,0,1-.34-1.87,4.66,4.66,0,0,1,.59-2.09,4,4,0,0,1,1.56-1.55A4.94,4.94,0,0,1,347.13,322.93Zm3.68.25v.51h-2.22v-.51Z"/><rect class="cls-40" x="364.8" y="329.11" width="55.2" height="1.96"/><rect class="cls-41" y="329.11" width="55.2" height="1.96"/></g></g></svg>